<?xml version="1.0" encoding="UTF-8" standalone="no"?>
<!DOCTYPE svg PUBLIC "-//W3C//DTD SVG 1.1//EN" "http://www.w3.org/Graphics/SVG/1.1/DTD/svg11.dtd">
<svg width="100%" height="100%" viewBox="0 0 2481 756" version="1.1" xmlns="http://www.w3.org/2000/svg" xmlns:xlink="http://www.w3.org/1999/xlink" xml:space="preserve" xmlns:serif="http://www.serif.com/" style="fill-rule:evenodd;clip-rule:evenodd;stroke-linejoin:round;stroke-miterlimit:2;">
    <g transform="matrix(0.342166,0,0,0.342166,1237.4,377.298)">
        <g transform="matrix(1,0,0,1,-3618.04,-1105.66)">
            <g transform="matrix(4.16667,0,0,4.16667,0,0)">
                <path d="M0,420.03L30.017,410.771C33.383,436.019 52.74,452.572 76.305,452.572C99.59,452.572 114.739,441.631 114.739,424.799C114.739,378.229 7.293,403.758 7.293,333.062C7.293,301.923 36.188,280.321 74.622,280.321C111.373,280.321 140.268,299.958 145.879,329.415L116.422,341.478C112.495,321.562 97.065,308.936 74.622,308.936C53.302,308.936 40.396,317.913 40.396,333.062C40.396,372.618 148.123,345.125 148.123,424.237C148.123,458.463 119.228,481.186 75.183,481.186C37.031,481.186 5.61,455.938 0,420.03Z" style="fill:rgb(35,31,32);fill-rule:nonzero;"/>
                <path d="M238.179,454.536C262.867,454.536 279.138,436.019 279.138,408.247C279.138,380.194 262.867,361.957 238.179,361.957C213.492,361.957 197.221,380.194 197.221,408.247C197.221,436.019 213.492,454.536 238.179,454.536ZM168.606,337.551L199.185,337.551L199.185,355.506C207.04,344.003 223.592,335.307 243.229,335.307C285.03,335.307 309.717,365.604 309.717,408.247C309.717,450.889 283.907,481.186 241.546,481.186C224.433,481.186 207.882,473.893 199.185,462.67L199.185,530L168.606,530L168.606,337.551Z" style="fill:rgb(35,31,32);fill-rule:nonzero;"/>
                <path d="M429.509,392.257C427.544,373.18 414.92,359.433 392.478,359.433C373.12,359.433 359.374,371.216 354.886,392.257L429.509,392.257ZM392.478,335.307C437.925,335.307 462.051,368.411 462.051,402.915C462.051,407.124 461.77,413.016 461.49,415.54L353.483,415.54C356.288,439.946 371.998,455.096 394.441,455.096C412.957,455.096 426.142,446.4 429.789,430.97L458.684,438.264C451.11,465.477 426.983,481.186 393.88,481.186C348.994,481.186 323.465,446.4 323.465,408.247C323.465,370.093 347.592,335.307 392.478,335.307Z" style="fill:rgb(35,31,32);fill-rule:nonzero;"/>
                <path d="M581.845,392.257C579.881,373.18 567.257,359.433 544.814,359.433C525.456,359.433 511.71,371.216 507.222,392.257L581.845,392.257ZM544.814,335.307C590.261,335.307 614.387,368.411 614.387,402.915C614.387,407.124 614.106,413.016 613.826,415.54L505.819,415.54C508.624,439.946 524.334,455.096 546.778,455.096C565.293,455.096 578.478,446.4 582.125,430.97L611.02,438.264C603.446,465.477 579.32,481.186 546.216,481.186C501.33,481.186 475.801,446.4 475.801,408.247C475.801,370.093 499.928,335.307 544.814,335.307Z" style="fill:rgb(35,31,32);fill-rule:nonzero;"/>
                <path d="M628.138,408.247C628.138,364.764 656.753,335.307 699.114,335.307C733.9,335.307 758.868,353.821 763.638,382.999L733.9,388.89C731.095,372.898 717.909,361.957 699.955,361.957C675.549,361.957 659.838,380.194 659.838,408.247C659.838,436.3 675.829,454.536 699.955,454.536C717.909,454.536 730.533,444.716 733.9,428.166L763.918,434.055C758.026,463.512 733.62,481.186 699.114,481.186C656.753,481.186 628.138,451.729 628.138,408.247Z" style="fill:rgb(35,31,32);fill-rule:nonzero;"/>
                <path d="M784.684,280.321L815.262,280.321L815.262,361.957C825.081,344.285 841.633,335.307 861.551,335.307C893.532,335.307 914.573,355.226 914.573,386.083L914.573,478.942L883.994,478.942L883.994,393.097C883.994,374.302 872.211,362.8 853.134,362.8C829.57,362.8 815.262,383.279 815.262,417.785L815.262,478.942L784.684,478.942L784.684,280.321Z" style="fill:rgb(35,31,32);fill-rule:nonzero;"/>
                <path d="M943.472,337.551L974.051,337.551L974.051,361.397C981.625,345.967 995.09,335.307 1015.57,335.307C1038.29,335.307 1054.56,345.125 1060.46,363.36C1068.03,347.932 1084.86,335.307 1107.03,335.307C1137.32,335.307 1156.96,354.944 1156.96,383.559L1156.96,478.942L1126.38,478.942L1126.38,391.135C1126.38,373.46 1116.28,361.677 1098.33,361.677C1077.29,361.677 1065.23,380.194 1065.23,407.404L1065.23,478.942L1034.93,478.942L1034.93,391.135C1034.93,373.46 1025.11,361.677 1007.15,361.677C986.114,361.677 974.051,380.474 974.051,407.404L974.051,478.942L943.472,478.942L943.472,337.551Z" style="fill:rgb(35,31,32);fill-rule:nonzero;"/>
                <path d="M1232.15,457.621C1256,457.621 1270.02,441.069 1270.31,418.065L1270.31,412.174L1243.37,415.26C1220.37,417.785 1208.59,426.201 1208.59,438.544C1208.59,449.767 1217.84,457.621 1232.15,457.621ZM1239.73,359.433C1222.61,359.433 1210.55,369.533 1208.59,386.365L1181.09,381.314C1185.58,353.541 1209.71,335.307 1239.73,335.307C1275.63,335.307 1300.32,355.506 1300.32,390.852L1300.32,478.942L1270.31,478.942L1270.31,457.341C1262.17,471.648 1244.78,481.186 1225.98,481.186C1197.93,481.186 1178.57,463.512 1178.57,439.386C1178.57,411.614 1200.17,396.744 1243.65,392.257L1270.31,389.45L1270.31,387.488C1270.31,370.093 1258.24,359.433 1239.73,359.433Z" style="fill:rgb(35,31,32);fill-rule:nonzero;"/>
                <path d="M1387.01,481.186C1360.36,481.186 1340.44,466.599 1340.44,434.337L1340.44,363.642L1315.76,363.642L1315.76,337.551L1340.44,337.551L1340.44,295.471L1371.02,295.471L1371.02,337.551L1407.49,337.551L1407.49,363.642L1371.02,363.642L1371.02,432.653C1371.02,446.68 1378.88,453.974 1390.38,453.974C1395.71,453.974 1402.16,453.132 1407.49,450.607L1409.46,477.82C1402.72,480.064 1394.87,481.186 1387.01,481.186Z" style="fill:rgb(35,31,32);fill-rule:nonzero;"/>
                <path d="M1428.25,337.551L1458.83,337.551L1458.83,478.942L1428.25,478.942L1428.25,337.551ZM1443.4,274.43C1454.9,274.43 1463.6,283.126 1463.6,294.349C1463.6,305.29 1454.9,313.986 1443.4,313.986C1432.18,313.986 1423.76,305.29 1423.76,294.349C1423.76,283.126 1432.18,274.43 1443.4,274.43Z" style="fill:rgb(35,31,32);fill-rule:nonzero;"/>
                <path d="M1480.43,408.247C1480.43,364.764 1509.05,335.307 1551.41,335.307C1586.19,335.307 1611.16,353.821 1615.93,382.999L1586.19,388.89C1583.39,372.898 1570.2,361.957 1552.25,361.957C1527.84,361.957 1512.13,380.194 1512.13,408.247C1512.13,436.3 1528.12,454.536 1552.25,454.536C1570.2,454.536 1582.83,444.716 1586.19,428.166L1616.21,434.055C1610.32,463.512 1585.91,481.186 1551.41,481.186C1509.05,481.186 1480.43,451.729 1480.43,408.247Z" style="fill:rgb(35,31,32);fill-rule:nonzero;"/>
                <path d="M1622.76,439.666L1648.01,429.006C1652.78,444.155 1663.72,456.779 1683.36,456.779C1697.94,456.779 1707.76,448.362 1707.76,438.264C1707.76,407.685 1628.93,427.603 1628.93,374.02C1628.93,351.859 1648.29,335.307 1678.87,335.307C1705.52,335.307 1727.96,349.334 1734.13,370.093L1708.88,380.754C1705.24,366.727 1692.05,358.873 1679.15,358.873C1665.68,358.873 1657.27,364.202 1657.27,373.46C1657.27,400.673 1736.66,379.912 1736.66,437.984C1736.66,462.39 1715.34,481.186 1683.36,481.186C1648.85,481.186 1629.21,459.865 1622.76,439.666Z" style="fill:rgb(35,31,32);fill-rule:nonzero;"/>
                <path d="M768.339,100.71C768.339,74.901 778.12,51.379 794.174,33.64C792.288,35.569 790.397,37.585 788.503,39.752C745.443,88.997 685.677,78.284 685.677,78.284C767.963,162.155 803.078,182.812 828.505,192.437C793.103,177.043 768.339,141.776 768.339,100.71Z" style="fill:rgb(192,194,196);fill-rule:nonzero;"/>
                <path d="M909.685,9.673L908.154,8.959L908.16,8.984C908.672,9.206 909.177,9.442 909.685,9.673Z" style="fill:rgb(134,192,184);fill-rule:nonzero;"/>
                <path d="M912.327,10.906L912.326,10.906L912.327,10.906Z" style="fill:rgb(134,192,184);fill-rule:nonzero;"/>
                <path d="M908.154,8.959C909.293,9.454 918.876,14.433 919.33,14.702C919.33,14.703 919.331,14.703 919.331,14.703C948.66,32.132 968.327,64.118 968.327,100.71C968.327,126.353 958.664,149.732 942.794,167.431C944.577,165.599 946.363,163.693 948.154,161.645C991.214,112.4 1050.68,123.162 1050.68,123.162C967.799,37.965 933.582,18.584 908.154,8.959Z" style="fill:rgb(192,194,196);fill-rule:nonzero;"/>
                <path d="M1190.36,48.402C1218.9,48.402 1242.04,71.816 1242.04,100.699C1242.04,129.581 1218.9,152.995 1190.36,152.995C1161.81,152.995 1138.67,129.581 1138.67,100.699C1138.67,71.816 1161.81,48.402 1190.36,48.402ZM1005.46,78.546C1114.64,193.491 1163.37,199.657 1188.42,199.657C1243.04,199.657 1287.2,155.116 1287.06,100.497C1286.91,45.878 1242.52,1.863 1187.9,1.863C1182.13,1.72 1146.77,-1.694 1110.53,39.752C1069.06,87.187 1005.46,78.546 1005.46,78.546Z" style="fill:rgb(35,31,32);fill-rule:nonzero;"/>
                <path d="M868.333,153.007C839.788,153.007 816.649,129.593 816.649,100.71C816.649,71.828 839.788,48.414 868.333,48.414C896.877,48.414 920.016,71.828 920.016,100.71C920.016,129.593 896.877,153.007 868.333,153.007ZM868.333,0.716C813.107,0.716 768.339,45.485 768.339,100.71C768.339,155.935 813.107,200.704 868.333,200.704C923.558,200.704 968.327,155.935 968.327,100.71C968.327,45.485 923.558,0.716 868.333,0.716Z" style="fill:rgb(35,31,32);fill-rule:nonzero;"/>
                <path d="M546.301,152.995C517.757,152.995 494.618,129.581 494.618,100.699C494.618,71.816 517.757,48.402 546.301,48.402C574.845,48.402 597.985,71.816 597.985,100.699C597.985,129.581 574.845,152.995 546.301,152.995ZM731.207,122.853C621.308,7.771 573.282,1.74 548.234,1.74C493.614,1.74 449.455,46.281 449.6,100.9C449.745,155.519 494.141,199.534 548.76,199.534C554.523,199.677 589.884,203.091 626.124,161.644C667.602,114.21 731.207,122.853 731.207,122.853Z" style="fill:rgb(35,31,32);fill-rule:nonzero;"/>
            </g>
        </g>
    </g>
</svg>
